<?xml version="1.0" encoding="utf-8"?>
<!-- Svg Vector Icons : http://www.onlinewebfonts.com/icon -->
<!DOCTYPE svg PUBLIC "-//W3C//DTD SVG 1.1//EN" "http://www.w3.org/Graphics/SVG/1.1/DTD/svg11.dtd">
<svg version="1.1" xmlns="http://www.w3.org/2000/svg" xmlns:xlink="http://www.w3.org/1999/xlink" x="0px" y="0px" viewBox="0 0 1000 1000" enable-background="new 0 0 1000 1000" xml:space="preserve">
<metadata> Svg Vector Icons : http://www.onlinewebfonts.com/icon </metadata>
<g><path d="M500,990C228.8,990,10,771.2,10,500C10,228.8,228.8,10,500,10c271.2,0,490,218.8,490,490C990,771.2,771.2,990,500,990z M500,54.9C253.1,54.9,54.9,255,54.9,500C54.9,746.9,255,945.1,500,945.1c246.9,0,445.1-200.1,445.1-445.1C945.1,253.1,746.9,54.9,500,54.9z M228.8,518.7l56.1-56.1l110.4,69.2l353.5-265.6l41.1,54.2l-389,433.9L228.8,518.7z"/></g>
</svg>